<svg width="841" height="337" viewBox="0 0 841 337" fill="none" xmlns="http://www.w3.org/2000/svg">
<path d="M40 92.5C40 78.5 43 65.8333 49 54.5C55 43.1667 62.8333 33.5 72.5 25.5C82.5 17.5 93.8333 11.3333 106.5 7C119.167 2.33331 132.333 -3.00407e-05 146 -3.00407e-05C164.667 -3.00407e-05 181.333 2.33331 196 7C211 11.6667 224.333 16.8333 236 22.5C235 30.5 234.167 38 233.5 45C232.833 52 232.5 58.8333 232.5 65.5C232.5 68.1667 232.5 70.8333 232.5 73.5C232.5 75.8333 232.667 78.3333 233 81C230 83.3333 226 84.5 221 84.5C217.667 84.5 214.667 83.8333 212 82.5C209.667 80.8333 208.167 78 207.5 74C204.5 56.3333 197.333 43.1666 186 34.5C175 25.5 161.167 21 144.5 21C137.833 21 131.333 22 125 24C118.667 25.6667 113 28.5 108 32.5C103 36.1667 99 41 96 47C93 52.6667 91.5 59.5 91.5 67.5C91.5 74.5 93 81 96 87C99.3333 93 103.5 98.8333 108.5 104.5C113.833 109.833 119.833 115.167 126.5 120.5C133.167 125.833 140 131.167 147 136.5C155 142.833 163 149.333 171 156C179 162.667 186.167 170 192.5 178C198.833 186 204 194.667 208 204C212 213.333 214 223.833 214 235.5C214 252.5 210.5 267.333 203.5 280C196.5 292.667 187.167 303.333 175.5 312C164.167 320.333 151 326.667 136 331C121 335 105.5 337 89.5 337C79.5 337 69.6667 336.333 60 335C50.6667 333.667 42 332 34 330C26 328 19 326 13 324C7.33333 321.667 3 319.5 2.68221e-07 317.5C1 307.833 1.83333 297.667 2.5 287C3.5 276 4 265.5 4 255.5C4 251.5 3.83333 247.667 3.5 244C3.5 240.333 3.33333 236.833 3 233.5C5 232.833 7.16667 232.167 9.5 231.5C11.8333 230.833 14.5 230.5 17.5 230.5C22.1667 230.5 25.1667 231.667 26.5 234C27.8333 236 29 239.167 30 243.5C33.6667 266.167 40.1667 283.667 49.5 296C59.1667 308 73.8333 314 93.5 314C101.833 314 109.833 312.833 117.5 310.5C125.167 307.833 132 304 138 299C144 294 148.833 287.833 152.5 280.5C156.167 273.167 158 264.667 158 255C158 246.667 156.333 239 153 232C150 225 145.833 218.5 140.5 212.5C135.167 206.5 129 201 122 196C115.333 190.667 108.5 185.333 101.5 180C93.8333 174.333 86.3333 168.667 79 163C71.6667 157 65 150.5 59 143.5C53.3333 136.5 48.6667 128.833 45 120.5C41.6667 112.167 40 102.833 40 92.5ZM773.016 306C773.016 296.333 776.349 287.833 783.016 280.5C789.682 273.167 798.016 269.5 808.016 269.5C818.682 269.5 826.682 272.667 832.016 279C837.682 285 840.516 292.333 840.516 301C840.516 311 837.016 319.5 830.016 326.5C823.016 333.5 814.849 337 805.516 337C793.849 337 785.516 334 780.516 328C775.516 322 773.016 314.667 773.016 306Z" fill="#111111"/>
<path d="M411.219 337C383.552 337 360.052 333.5 340.719 326.5C321.719 319.5 306.052 309.833 293.719 297.5C281.385 285.167 272.385 271 266.719 255C261.385 238.667 258.719 221.167 258.719 202.5C258.719 178.833 262.885 155 271.219 131C279.552 106.667 291.885 84.8333 308.219 65.5C324.885 46.1666 345.719 30.5 370.719 18.5C395.719 6.16665 425.052 -3.00407e-05 458.719 -3.00407e-05C476.052 -3.00407e-05 492.885 1.49997 509.219 4.49997C525.552 7.49997 541.552 11.5 557.219 16.5C556.219 26.1667 555.719 35.8333 555.719 45.5C555.719 52.5 555.885 59.1667 556.219 65.5C556.885 71.8333 557.552 77.8333 558.219 83.5C555.219 86.5 550.719 88 544.719 88C537.385 88 533.219 84.6666 532.219 78C527.885 57 518.719 42.1667 504.719 33.5C491.052 24.8333 474.552 20.5 455.219 20.5C434.552 20.5 416.052 25.3333 399.719 35C383.719 44.6667 370.052 57.6667 358.719 74C347.719 90 339.219 108.833 333.219 130.5C327.219 151.833 324.219 174.5 324.219 198.5C324.219 216.167 326.385 232.167 330.719 246.5C335.052 260.833 341.219 273.167 349.219 283.5C357.219 293.5 366.885 301.333 378.219 307C389.885 312.333 402.719 315 416.719 315C436.719 315 453.719 310.333 467.719 301C481.719 291.667 493.552 276.5 503.219 255.5C504.885 252.5 506.719 250.333 508.719 249C510.719 247.333 513.885 246.5 518.219 246.5C521.552 246.5 524.719 247.333 527.719 249C530.719 250.333 532.719 251.5 533.719 252.5C529.385 261.167 525.052 271.833 520.719 284.5C516.385 297.167 512.719 311 509.719 326C501.719 327.667 493.052 329.167 483.719 330.5C474.719 331.833 465.719 333 456.719 334C447.719 335 439.219 335.667 431.219 336C423.552 336.667 416.885 337 411.219 337ZM680.789 110C693.789 110 704.956 112.167 714.289 116.5C723.622 120.833 731.456 126.833 737.789 134.5C744.122 142.167 748.789 151.167 751.789 161.5C754.789 171.5 756.289 182.5 756.289 194.5C756.289 218.5 752.456 239.5 744.789 257.5C737.122 275.167 727.122 290 714.789 302C702.456 313.667 688.622 322.5 673.289 328.5C657.956 334.167 642.789 337 627.789 337C615.122 337 604.289 335 595.289 331C586.289 327 578.956 321.5 573.289 314.5C567.956 307.167 563.956 298.5 561.289 288.5C558.956 278.167 557.789 267 557.789 255C557.789 232.667 561.622 212.5 569.289 194.5C577.289 176.5 587.289 161.333 599.289 149C611.289 136.333 624.456 126.667 638.789 120C653.456 113.333 667.456 110 680.789 110ZM641.789 315C650.122 315 657.789 312.167 664.789 306.5C671.789 300.5 677.789 292.333 682.789 282C687.789 271.667 691.622 259.333 694.289 245C697.289 230.667 698.789 215.167 698.789 198.5C698.789 178.167 696.956 162 693.289 150C689.956 138 683.122 132 672.789 132C663.456 132 655.122 135.667 647.789 143C640.789 150 634.789 159.167 629.789 170.5C625.122 181.833 621.456 194.5 618.789 208.5C616.456 222.5 615.289 236.333 615.289 250C615.289 271 617.289 287.167 621.289 298.5C625.289 309.5 632.122 315 641.789 315Z" fill="#8B0000"/>
</svg>
